<svg xmlns="http://www.w3.org/2000/svg" width="18.2" height="17.08"><g fill="#060818" stroke="#060818" stroke-width=".2"><path d="m.301 14.833 4.324 2.109a.36.36 0 0 0 .308 0l4.168-2.038 4.17 2.034a.36.36 0 0 0 .308 0l4.322-2.105a.35.35 0 0 0 .2-.316V9.595a.35.35 0 0 0-.2-.318L13.67 7.264v-4.7a.35.35 0 0 0-.194-.311L9.257.14a.35.35 0 0 0-.314 0L4.724 2.25a.35.35 0 0 0-.194.311v.7a.352.352 0 1 0 .7 0v-.128l3.519 1.758v4.136L5.233 7.269V6.08a.352.352 0 1 0-.7 0v1.184L.301 9.278a.35.35 0 0 0-.2.317v4.922a.35.35 0 0 0 .2.316Zm.5-4.675 3.623 1.766v4.14L.801 14.298Zm7.945 4.14-3.619 1.766v-4.14l3.621-1.766Zm4.574-6.42 3.619 1.726-3.515 1.71-3.53-1.722ZM9.452 9.027V4.891l3.516-1.758v4.136Zm0 1.131 3.621 1.766v4.14l-3.621-1.766Zm7.945 4.14-3.621 1.766v-4.14l3.625-1.766ZM9.101.848l3.432 1.716L9.101 4.28 5.667 2.564Zm-.795 8.744-3.53 1.722-3.515-1.71 3.617-1.727Zm0 0" data-name="Path 42192"/><path d="M9.1 8.54Zm0 0" data-name="Path 42193"/></g></svg>