<svg xmlns="http://www.w3.org/2000/svg" fill="none" viewBox="7.45 7.45 15.1 15.11"><path stroke="#060818" stroke-linecap="round" stroke-linejoin="round" stroke-width="1.105" d="M12.666 16.556c0 1.289 2.089 2.334 4.666 2.334S22 17.845 22 16.556s-2.09-2.333-4.667-2.333-4.666 1.044-4.666 2.333"/><path stroke="#060818" stroke-linecap="round" stroke-linejoin="round" stroke-width="1.105" d="M12.666 16.556v3.11c0 1.288 2.089 2.334 4.666 2.334S22 20.954 22 19.667v-3.111M8 10.334c0 .835.89 1.603 2.334 2.02a8.86 8.86 0 0 0 4.666 0c1.443-.417 2.333-1.187 2.333-2.02 0-.834-.89-1.604-2.333-2.021a8.86 8.86 0 0 0-4.666 0C8.89 8.73 8 9.5 8 10.333"/><path stroke="#060818" stroke-linecap="round" stroke-linejoin="round" stroke-width="1.105" d="M8 10.334v7.778c0 .69.6 1.128 1.555 1.555"/><path stroke="#060818" stroke-linecap="round" stroke-linejoin="round" stroke-width="1.105" d="M8 14.223c0 .69.6 1.128 1.555 1.555"/></svg>