<svg width="16" height="16" viewBox="0 0 16 16" fill="none" xmlns="http://www.w3.org/2000/svg">
<path d="M1.54807 9.33199L2.11828 13.1099C2.18029 13.5207 2.56356 13.8035 2.97436 13.7415L9.40915 12.7702C9.81992 12.7082 10.1027 12.325 10.0406 11.9142L8.41141 1.11961C8.3494 0.708839 7.9661 0.4261 7.55534 0.488112L1.12055 1.45935C0.709749 1.52133 0.42701 1.90463 0.488991 2.3154L1.14823 6.68287" stroke="#060818" stroke-width="0.96" stroke-miterlimit="10" stroke-linecap="round" stroke-linejoin="round"/>
<path d="M3.73633 9.20312L7.34218 8.65886" stroke="#060818" stroke-width="0.96" stroke-miterlimit="10" stroke-linecap="round" stroke-linejoin="round"/>
<path d="M4.02734 11.1328L7.6332 10.5886" stroke="#060818" stroke-width="0.96" stroke-miterlimit="10" stroke-linecap="round" stroke-linejoin="round"/>
<path d="M15.0495 4.15298L13.2545 14.6937C13.1744 15.1645 12.7277 15.4808 12.2574 15.4007L6.06299 14.3461C5.60342 14.2676 5.2909 13.8402 5.35118 13.3823L9.2966 12.7869C9.55232 12.7483 9.76519 12.6009 9.89479 12.3991C10.0046 12.2288 10.0551 12.0194 10.0223 11.803L9.83451 10.5585L9.46172 8.08862L9.29171 6.96185L8.56873 2.17299L14.3422 3.15582C14.813 3.23598 15.1297 3.68229 15.0495 4.15298Z" stroke="#060818" stroke-width="0.96" stroke-miterlimit="10" stroke-linecap="round" stroke-linejoin="round"/>
<path d="M6.58032 4.40501L5.02452 3.25727C4.81217 3.10062 4.51301 3.14579 4.35633 3.35817L3.20859 4.914C3.0519 5.12635 3.09707 5.42551 3.30945 5.58216L4.86525 6.7299C5.0776 6.88656 5.37676 6.84142 5.53345 6.62904L6.68119 5.07323C6.83784 4.86085 6.7927 4.56169 6.58032 4.40501Z" stroke="#060818" stroke-width="0.96" stroke-miterlimit="10" stroke-linecap="round" stroke-linejoin="round"/>
</svg>
