<svg xmlns="http://www.w3.org/2000/svg" width="134.977" height="120.393" viewBox="0 0 134.977 120.393">
  <g id="no_listing_found" data-name="no listing found" transform="translate(-120 -242.968)">
    <path id="Path_22640" data-name="Path 22640" d="M28.106,77.752h5.5v-5.5h-5.5Zm7.042,0h5.5v-5.5h-5.5ZM28.106,70.71h5.5v-5.5h-5.5Zm7.042,0h5.5v-5.5h-5.5ZM8.512,56.975H12.46L35.3,41.417,33.332,40.07ZM73.937,46.36l3.426-1.218v3.426l-3.426,1.218Zm0-4.973,3.426-1.218v3.426l-3.426,1.218ZM68.207,38.27l3.426-1.218v3.425L68.207,41.7Zm5.731-1.856L77.363,35.2v3.426L73.937,39.84ZM68.207,33.3l3.426-1.218v3.426l-3.426,1.218Zm5.731-1.856,3.426-1.218v3.426l-3.426,1.218ZM62.476,30.181,65.9,28.963v3.426l-3.426,1.218Zm5.731-1.856,3.426-1.218v3.426L68.207,31.75ZM56.746,27.064l3.426-1.218v3.426L56.746,30.49Zm17.192-.6,3.426-1.218v3.425l-3.426,1.218ZM62.476,25.208,65.9,23.99v3.425l-3.426,1.218Zm5.731-1.856,3.426-1.218V25.56l-3.426,1.218ZM56.746,22.091l3.426-1.218V24.3l-3.426,1.218ZM73.937,21.5l3.426-1.218V23.7l-3.426,1.219ZM62.476,20.235,65.9,19.017v3.426l-3.426,1.218Zm5.731-1.856,3.426-1.218v3.426L68.207,21.8ZM56.746,17.119,60.171,15.9v3.426l-3.426,1.218Zm17.192-.6,3.426-1.218v3.426l-3.426,1.218ZM62.476,15.263,65.9,14.045V17.47l-3.426,1.218Zm5.731-1.856,3.426-1.218v3.426l-3.426,1.218Zm5.731-1.856,3.426-1.218v3.426l-3.426,1.218ZM82.1,0l-36.312,15.2V36.494l-12.7-2.862L0,56.17H4.237L33.269,36.238,71.427,62.352H65.345v39.878H.043v2.079H134.977v-2.079H118.184V47.8l-10.477,4.387V98H96.537L96.222,57l11.485-4.809v-18.9L86.754,24.509V98H82.1Z" transform="translate(120 259.053)" fill="#d5d5d5"/>
    <g id="search" transform="matrix(-0.985, 0.174, -0.174, -0.985, 212.758, 320.677)">
      <g id="Group_38604" data-name="Group 38604" transform="translate(0 0)">
        <path id="Path_22641" data-name="Path 22641" d="M.407,2.374,20.717,22.683a26.522,26.522,0,1,0,1.966-1.966L2.374.407A1.39,1.39,0,1,0,.407,2.374ZM40.327,16.687a23.64,23.64,0,1,1-23.64,23.64A23.667,23.667,0,0,1,40.327,16.687Z" transform="translate(11.107 14.118)" fill="#b6b6b6"/>
        <g id="Group_42865" data-name="Group 42865" transform="matrix(-0.985, -0.174, 0.174, -0.985, 250.553, 276.05)">
          <g id="Group_42862" data-name="Group 42862" transform="translate(232.739 173.005)">
            <g id="Group_42861" data-name="Group 42861" transform="translate(0 0)">
              <path id="Path_42279" data-name="Path 42279" d="M235.713,173.005c-1.2,0-2.135.643-2.135,1.784,0,3.481.409,8.482.409,11.963,0,.907.79,1.287,1.726,1.287.7,0,1.7-.38,1.7-1.287,0-3.481.409-8.482.409-11.963A1.88,1.88,0,0,0,235.713,173.005Z" transform="translate(-233.578 -173.005)" fill="#b6b6b6"/>
            </g>
          </g>
          <g id="Group_42864" data-name="Group 42864" transform="translate(232.651 190.057)">
            <g id="Group_42863" data-name="Group 42863" transform="translate(0 0)">
              <path id="Path_42280" data-name="Path 42280" d="M234.9,353.306a2.252,2.252,0,0,0,0,4.5,2.252,2.252,0,0,0,0-4.5Z" transform="translate(-232.651 -353.306)" fill="#b6b6b6"/>
            </g>
          </g>
        </g>
      </g>
    </g>
    <g id="Group_38606" data-name="Group 38606" transform="translate(126.706 337.682)">
      <g id="Group_42858" data-name="Group 42858" transform="translate(-4.685 -1.87)">
        <path id="Path_22642" data-name="Path 22642" d="M17.169,2.966a10.118,10.118,0,0,0-14.313,0A9.478,9.478,0,0,0,0,9.764,12.01,12.01,0,0,0,2.856,17.27l5.777,7.49a1.743,1.743,0,0,0,2.759,0l5.777-7.49a12.007,12.007,0,0,0,2.854-7.506,9.477,9.477,0,0,0-2.854-6.8" transform="translate(-0.001)" fill="#d5d5d5"/>
        <path id="Path_22643" data-name="Path 22643" d="M54.742,58.588a4.2,4.2,0,1,0-4.2-4.2,4.2,4.2,0,0,0,4.2,4.2" transform="translate(-44.731 -44.42)" fill="#fff"/>
      </g>
    </g>
  </g>
</svg>
