<svg xmlns="http://www.w3.org/2000/svg" width="15.6" height="15.6" viewBox="0 0 15.6 15.6">
  <g id="g918" transform="translate(0.845 683.51)">
    <g id="g920" transform="translate(0.455 -682.21)">
      <g id="Group_39897" data-name="Group 39897" transform="translate(0 0)">
        <g id="g928">
          <g id="path930" transform="translate(171.377)" fill="none" stroke-linecap="round" stroke-linejoin="round">
            <path d="M-167.91,0a3.467,3.467,0,0,0-2.451,1.015,3.467,3.467,0,0,0-1.015,2.451A9.533,9.533,0,0,0-161.844,13a3.467,3.467,0,0,0,2.451-1.015,3.467,3.467,0,0,0,1.015-2.451L-162.71,7.8l-.867,2.167h0A4.766,4.766,0,0,1-168.344,5.2h0l2.167-.867Z" stroke="none"/>
            <path d="M -167.9102630615234 9.5367431640625e-07 C -168.8295745849609 9.5367431640625e-07 -169.7114105224609 0.3652410507202148 -170.3616333007812 1.015340805053711 C -171.0116271972656 1.665480613708496 -171.3769226074219 2.5472412109375 -171.3769226074219 3.46665096282959 C -171.3769226074219 8.73176097869873 -167.1088104248047 12.99996089935303 -161.8436126708984 12.99996089935303 C -160.9243011474609 12.99996089935303 -160.0424652099609 12.63472080230713 -159.3922882080078 11.98461055755615 C -158.7422637939453 11.33448123931885 -158.3769683837891 10.45272064208984 -158.3769683837891 9.533310890197754 L -162.7102966308594 7.799981117248535 L -163.5774078369141 9.966630935668945 C -166.2096557617188 9.966630935668945 -168.3435821533203 7.832750797271729 -168.3435821533203 5.200410842895508 L -168.3435821533203 5.199980735778809 L -166.1769561767578 4.333331108093262 L -167.9102630615234 9.5367431640625e-07 M -167.9102630615234 -1.299999237060547 C -167.3786773681641 -1.299999237060547 -166.9006652832031 -0.9763593673706055 -166.7032470703125 -0.4827995300292969 L -164.9699401855469 3.850530624389648 C -164.7032775878906 4.51715087890625 -165.0275268554688 5.273700714111328 -165.6941375732422 5.540350914001465 L -166.9409484863281 6.039071083068848 C -166.6319122314453 7.277960777282715 -165.6547698974609 8.255121231079102 -164.4160614013672 8.564052581787109 L -163.9173126220703 7.317171096801758 C -163.7892608642578 6.997050762176514 -163.5392913818359 6.74091100692749 -163.2223815917969 6.605091094970703 C -162.9054718017578 6.469276428222656 -162.547607421875 6.464915752410889 -162.2274780273438 6.592960834503174 L -157.8941650390625 8.326291084289551 C -157.4006195068359 8.523710250854492 -157.0769805908203 9.001730918884277 -157.0769805908203 9.533310890197754 C -157.0769805908203 10.80642127990723 -157.57275390625 12.00341129302979 -158.4729766845703 12.90378093719482 C -159.3734588623047 13.80416107177734 -160.5704498291016 14.29996109008789 -161.8436126708984 14.29996109008789 C -164.7373352050781 14.29996109008789 -167.4578399658203 13.17310047149658 -169.5039672851562 11.12696075439453 C -171.5500793457031 9.080830574035645 -172.6769256591797 6.36034107208252 -172.6769256591797 3.46665096282959 C -172.6769256591797 2.193580627441406 -172.1811676025391 0.9966011047363281 -171.2809753417969 0.09621047973632812 C -170.3803863525391 -0.8042192459106445 -169.1833801269531 -1.299999237060547 -167.9102630615234 -1.299999237060547 Z" stroke="none" fill="#5e17eb"/>
          </g>
        </g>
      </g>
    </g>
  </g>
</svg>
